<?xml version="1.0" standalone="no"?><!DOCTYPE svg PUBLIC "-//W3C//DTD SVG 1.1//EN" "http://www.w3.org/Graphics/SVG/1.1/DTD/svg11.dtd"><svg t="1583078356272" class="icon" viewBox="0 0 1024 1024" version="1.1" xmlns="http://www.w3.org/2000/svg" p-id="821" xmlns:xlink="http://www.w3.org/1999/xlink" width="200" height="200"><defs><style type="text/css"></style></defs><path d="M512 384q52.010667 0 89.984 38.016t38.016 89.984-38.016 89.984-89.984 38.016-89.984-38.016-38.016-89.984 38.016-89.984 89.984-38.016zM512 726.016q88.021333 0 150.997333-63.018667t63.018667-150.997333-63.018667-150.997333-150.997333-63.018667-150.997333 63.018667-63.018667 150.997333 63.018667 150.997333 150.997333 63.018667zM512 192q157.994667 0 285.994667 88.021333t184.021333 232.021333q-56.021333 144-184.021333 232.021333t-285.994667 88.021333-285.994667-88.021333-184.021333-232.021333q56.021333-144 184.021333-232.021333t285.994667-88.021333z" p-id="822" fill="#ffffff"></path></svg>